<svg width="208" height="169" viewBox="0 0 208 169" fill="none" xmlns="http://www.w3.org/2000/svg">
<rect width="208" height="169" fill="#FAFAFA"/>
<rect x="12.5" y="143.229" width="183" height="10.0208" rx="4.5" fill="#FAFAFA" stroke="#A8A8A8"/>
<rect x="12.5" y="116.635" width="183" height="22.9583" rx="4.5" fill="#FAFAFA" stroke="#A8A8A8"/>
<rect x="12.5" y="10.5" width="183" height="102.5" fill="#FAFAFA" stroke="#A8A8A8"/>
<path d="M83.6514 130.402H79.4814L78.5449 133H77.1914L80.9922 123.047H82.1406L85.9482 133H84.6016L83.6514 130.402ZM79.8779 129.322H83.2617L81.5664 124.667L79.8779 129.322ZM87.2881 133V123.047H90.542C91.6221 123.047 92.4333 123.27 92.9756 123.717C93.5225 124.163 93.7959 124.824 93.7959 125.699C93.7959 126.164 93.6637 126.576 93.3994 126.937C93.1351 127.292 92.7751 127.568 92.3193 127.764C92.8571 127.914 93.2809 128.201 93.5908 128.625C93.9053 129.044 94.0625 129.546 94.0625 130.129C94.0625 131.022 93.7731 131.724 93.1943 132.234C92.6156 132.745 91.7975 133 90.7402 133H87.2881ZM88.6006 128.345V131.927H90.7676C91.3783 131.927 91.859 131.77 92.21 131.455C92.5654 131.136 92.7432 130.699 92.7432 130.143C92.7432 128.944 92.0915 128.345 90.7881 128.345H88.6006ZM88.6006 127.292H90.583C91.1572 127.292 91.6152 127.148 91.957 126.861C92.3034 126.574 92.4766 126.185 92.4766 125.692C92.4766 125.146 92.3171 124.749 91.998 124.503C91.679 124.252 91.1937 124.127 90.542 124.127H88.6006V127.292ZM103.332 129.842C103.209 130.895 102.819 131.708 102.163 132.282C101.511 132.852 100.643 133.137 99.5586 133.137C98.3828 133.137 97.4395 132.715 96.7285 131.872C96.0221 131.029 95.6689 129.901 95.6689 128.488V127.531C95.6689 126.606 95.833 125.793 96.1611 125.091C96.4938 124.389 96.9632 123.851 97.5693 123.478C98.1755 123.099 98.8773 122.91 99.6748 122.91C100.732 122.91 101.58 123.206 102.218 123.799C102.856 124.387 103.227 125.202 103.332 126.246H102.013C101.899 125.453 101.65 124.879 101.268 124.523C100.889 124.168 100.358 123.99 99.6748 123.99C98.8363 123.99 98.1777 124.3 97.6992 124.92C97.2253 125.54 96.9883 126.422 96.9883 127.565V128.529C96.9883 129.609 97.2139 130.468 97.665 131.106C98.1162 131.744 98.7474 132.063 99.5586 132.063C100.288 132.063 100.846 131.899 101.233 131.571C101.625 131.239 101.885 130.662 102.013 129.842H103.332ZM112.971 133C112.898 132.854 112.839 132.594 112.793 132.221C112.205 132.831 111.503 133.137 110.688 133.137C109.958 133.137 109.359 132.932 108.89 132.521C108.425 132.107 108.192 131.583 108.192 130.949C108.192 130.179 108.484 129.582 109.067 129.158C109.655 128.73 110.48 128.516 111.542 128.516H112.772V127.935C112.772 127.493 112.64 127.142 112.376 126.882C112.112 126.618 111.722 126.485 111.207 126.485C110.756 126.485 110.378 126.599 110.072 126.827C109.767 127.055 109.614 127.331 109.614 127.654H108.343C108.343 127.285 108.473 126.93 108.732 126.588C108.997 126.242 109.352 125.968 109.799 125.768C110.25 125.567 110.744 125.467 111.282 125.467C112.134 125.467 112.802 125.681 113.285 126.109C113.768 126.533 114.019 127.119 114.037 127.866V131.271C114.037 131.95 114.124 132.49 114.297 132.891V133H112.971ZM110.872 132.036C111.269 132.036 111.645 131.934 112 131.729C112.355 131.523 112.613 131.257 112.772 130.929V129.411H111.781C110.232 129.411 109.457 129.865 109.457 130.771C109.457 131.168 109.589 131.478 109.854 131.701C110.118 131.924 110.457 132.036 110.872 132.036ZM122.281 129.384C122.281 130.514 122.021 131.423 121.502 132.111C120.982 132.795 120.285 133.137 119.41 133.137C118.476 133.137 117.754 132.806 117.243 132.146L117.182 133H116.02V122.5H117.284V126.417C117.795 125.784 118.499 125.467 119.396 125.467C120.294 125.467 120.998 125.806 121.509 126.485C122.024 127.164 122.281 128.094 122.281 129.274V129.384ZM121.017 129.24C121.017 128.379 120.85 127.714 120.518 127.244C120.185 126.775 119.706 126.54 119.082 126.54C118.248 126.54 117.649 126.927 117.284 127.702V130.901C117.672 131.676 118.275 132.063 119.096 132.063C119.702 132.063 120.174 131.829 120.511 131.359C120.848 130.89 121.017 130.184 121.017 129.24ZM126.848 132.104C127.299 132.104 127.693 131.968 128.03 131.694C128.368 131.421 128.554 131.079 128.591 130.669H129.787C129.764 131.093 129.618 131.496 129.35 131.879C129.081 132.262 128.721 132.567 128.27 132.795C127.823 133.023 127.349 133.137 126.848 133.137C125.84 133.137 125.038 132.802 124.441 132.132C123.849 131.457 123.553 130.537 123.553 129.37V129.158C123.553 128.438 123.685 127.798 123.949 127.237C124.214 126.677 124.592 126.242 125.084 125.932C125.581 125.622 126.166 125.467 126.841 125.467C127.67 125.467 128.358 125.715 128.905 126.212C129.457 126.709 129.751 127.354 129.787 128.146H128.591C128.554 127.668 128.372 127.276 128.044 126.971C127.72 126.661 127.319 126.506 126.841 126.506C126.198 126.506 125.699 126.738 125.344 127.203C124.993 127.663 124.817 128.331 124.817 129.206V129.445C124.817 130.298 124.993 130.954 125.344 131.414C125.695 131.874 126.196 132.104 126.848 132.104Z" fill="black"/>
</svg>
